<?xml version="1.0" encoding="UTF-8" standalone="no"?>
<!DOCTYPE svg PUBLIC "-//W3C//DTD SVG 1.1//EN"
 "http://www.w3.org/Graphics/SVG/1.1/DTD/svg11.dtd">
<!-- Generated by graphviz version 2.43.0 (0)
 -->
<!-- Title: Object Pages: 1 -->
<svg width="954pt" height="654pt"
 viewBox="0.00 0.00 954.43 653.60" xmlns="http://www.w3.org/2000/svg" xmlns:xlink="http://www.w3.org/1999/xlink">
<g id="graph0" class="graph" transform="scale(1 1) rotate(0) translate(28.8 624.8)">
<title>Object</title>
<polygon fill="white" stroke="transparent" points="-28.8,28.8 -28.8,-624.8 925.63,-624.8 925.63,28.8 -28.8,28.8"/>
<text text-anchor="middle" x="448.41" y="-581.6" font-family="Arial Bold" font-size="13.00">Object domain model</text>
<!-- m_Area -->
<g id="node1" class="node">
<title>m_Area</title>
<path fill="none" stroke="black" d="M531,-318.5C531,-318.5 651,-318.5 651,-318.5 657,-318.5 663,-324.5 663,-330.5 663,-330.5 663,-440.5 663,-440.5 663,-446.5 657,-452.5 651,-452.5 651,-452.5 531,-452.5 531,-452.5 525,-452.5 519,-446.5 519,-440.5 519,-440.5 519,-330.5 519,-330.5 519,-324.5 525,-318.5 531,-318.5"/>
<text text-anchor="start" x="576.5" y="-439.7" font-family="Arial Bold" font-size="11.00">Area</text>
<polyline fill="none" stroke="black" points="519,-432.5 663,-432.5 "/>
<text text-anchor="start" x="526" y="-419.5" font-family="Arial" font-size="10.00">code </text>
<text text-anchor="start" x="551" y="-419.5" font-family="Arial Italic" font-size="10.00" fill="#999999">string (15) ∗</text>
<text text-anchor="start" x="526" y="-406.5" font-family="Arial" font-size="10.00">electricitymaps_id </text>
<text text-anchor="start" x="608" y="-406.5" font-family="Arial Italic" font-size="10.00" fill="#999999">string (12)</text>
<text text-anchor="start" x="526" y="-393.5" font-family="Arial" font-size="10.00">enabled </text>
<text text-anchor="start" x="563" y="-393.5" font-family="Arial Italic" font-size="10.00" fill="#999999">boolean ∗</text>
<text text-anchor="start" x="526" y="-380.5" font-family="Arial" font-size="10.00">internal_id </text>
<text text-anchor="start" x="574" y="-380.5" font-family="Arial Italic" font-size="10.00" fill="#999999">string</text>
<text text-anchor="start" x="526" y="-367.5" font-family="Arial" font-size="10.00">price_area_id </text>
<text text-anchor="start" x="587" y="-367.5" font-family="Arial Italic" font-size="10.00" fill="#999999">integer (2)</text>
<text text-anchor="start" x="526" y="-354.5" font-family="Arial" font-size="10.00">region </text>
<text text-anchor="start" x="556" y="-354.5" font-family="Arial Italic" font-size="10.00" fill="#999999">enum ∗</text>
<text text-anchor="start" x="526" y="-341.5" font-family="Arial" font-size="10.00">source </text>
<text text-anchor="start" x="559" y="-341.5" font-family="Arial Italic" font-size="10.00" fill="#999999">enum ∗</text>
<text text-anchor="start" x="526" y="-328.5" font-family="Arial" font-size="10.00">type </text>
<text text-anchor="start" x="548" y="-328.5" font-family="Arial Italic" font-size="10.00" fill="#999999">enum ∗</text>
</g>
<!-- m_AreasProductionType -->
<g id="node2" class="node">
<title>m_AreasProductionType</title>
<path fill="none" stroke="black" d="M156,-225.5C156,-225.5 276,-225.5 276,-225.5 282,-225.5 288,-231.5 288,-237.5 288,-237.5 288,-256.5 288,-256.5 288,-262.5 282,-268.5 276,-268.5 276,-268.5 156,-268.5 156,-268.5 150,-268.5 144,-262.5 144,-256.5 144,-256.5 144,-237.5 144,-237.5 144,-231.5 150,-225.5 156,-225.5"/>
<text text-anchor="start" x="156.5" y="-255.7" font-family="Arial Bold" font-size="11.00">AreasProductionType</text>
<polyline fill="none" stroke="black" points="144,-248.5 288,-248.5 "/>
<text text-anchor="start" x="151" y="-235" font-family="Arial" font-size="10.00">source_area_id </text>
<text text-anchor="start" x="221" y="-235" font-family="Arial Italic" font-size="10.00" fill="#999999">integer (2) ∗</text>
</g>
<!-- m_Area&#45;&gt;m_AreasProductionType -->
<g id="edge17" class="edge">
<title>m_Area&#45;&gt;m_AreasProductionType</title>
<path fill="none" stroke="black" d="M518.95,-325.51C514.34,-322.78 509.68,-320.25 505,-318 500.18,-315.69 380.61,-287.06 296.8,-267.14"/>
<polygon fill="black" stroke="black" points="297.53,-264.08 288.04,-265.06 296.07,-270.21 297.53,-264.08"/>
</g>
<!-- m_Capacity -->
<g id="node3" class="node">
<title>m_Capacity</title>
<path fill="none" stroke="black" d="M12,-106.5C12,-106.5 132,-106.5 132,-106.5 138,-106.5 144,-112.5 144,-118.5 144,-118.5 144,-150.5 144,-150.5 144,-156.5 138,-162.5 132,-162.5 132,-162.5 12,-162.5 12,-162.5 6,-162.5 0,-156.5 0,-150.5 0,-150.5 0,-118.5 0,-118.5 0,-112.5 6,-106.5 12,-106.5"/>
<text text-anchor="start" x="47" y="-149.7" font-family="Arial Bold" font-size="11.00">Capacity</text>
<polyline fill="none" stroke="black" points="0,-142.5 144,-142.5 "/>
<text text-anchor="start" x="7" y="-129.5" font-family="Arial" font-size="10.00">time </text>
<text text-anchor="start" x="29" y="-129.5" font-family="Arial Italic" font-size="10.00" fill="#999999">datetime ∗</text>
<text text-anchor="start" x="7" y="-116.5" font-family="Arial" font-size="10.00">value </text>
<text text-anchor="start" x="34" y="-116.5" font-family="Arial Italic" font-size="10.00" fill="#999999">integer ∗</text>
</g>
<!-- m_Area&#45;&gt;m_Capacity -->
<g id="edge14" class="edge">
<title>m_Area&#45;&gt;m_Capacity</title>
<path fill="none" stroke="black" d="M518.79,-324.43C514.26,-322.01 509.65,-319.84 505,-318 348.9,-256.23 277.9,-359.53 129,-282 111.38,-272.83 112.69,-263.28 100,-248"/>
</g>
<!-- m_Load -->
<g id="node8" class="node">
<title>m_Load</title>
<path fill="none" stroke="black" d="M734,-219C734,-219 854,-219 854,-219 860,-219 866,-225 866,-231 866,-231 866,-263 866,-263 866,-269 860,-275 854,-275 854,-275 734,-275 734,-275 728,-275 722,-269 722,-263 722,-263 722,-231 722,-231 722,-225 728,-219 734,-219"/>
<text text-anchor="start" x="778.5" y="-262.2" font-family="Arial Bold" font-size="11.00">Load</text>
<polyline fill="none" stroke="black" points="722,-255 866,-255 "/>
<text text-anchor="start" x="729" y="-242" font-family="Arial" font-size="10.00">time </text>
<text text-anchor="start" x="751" y="-242" font-family="Arial Italic" font-size="10.00" fill="#999999">datetime ∗</text>
<text text-anchor="start" x="729" y="-229" font-family="Arial" font-size="10.00">value </text>
<text text-anchor="start" x="756" y="-229" font-family="Arial Italic" font-size="10.00" fill="#999999">integer ∗</text>
</g>
<!-- m_Area&#45;&gt;m_Load -->
<g id="edge9" class="edge">
<title>m_Area&#45;&gt;m_Load</title>
<path fill="none" stroke="black" d="M663.14,-335.99C690.72,-317.45 721.45,-296.78 746.21,-280.14"/>
<polygon fill="black" stroke="black" points="747.98,-282.74 753.69,-275.11 744.46,-277.51 747.98,-282.74"/>
</g>
<!-- m_Price -->
<g id="node10" class="node">
<title>m_Price</title>
<path fill="none" stroke="black" d="M388,-219C388,-219 508,-219 508,-219 514,-219 520,-225 520,-231 520,-231 520,-263 520,-263 520,-269 514,-275 508,-275 508,-275 388,-275 388,-275 382,-275 376,-269 376,-263 376,-263 376,-231 376,-231 376,-225 382,-219 388,-219"/>
<text text-anchor="start" x="432" y="-262.2" font-family="Arial Bold" font-size="11.00">Price</text>
<polyline fill="none" stroke="black" points="376,-255 520,-255 "/>
<text text-anchor="start" x="383" y="-242" font-family="Arial" font-size="10.00">time </text>
<text text-anchor="start" x="405" y="-242" font-family="Arial Italic" font-size="10.00" fill="#999999">datetime ∗</text>
<text text-anchor="start" x="383" y="-229" font-family="Arial" font-size="10.00">value </text>
<text text-anchor="start" x="410" y="-229" font-family="Arial Italic" font-size="10.00" fill="#999999">integer ∗</text>
</g>
<!-- m_Area&#45;&gt;m_Price -->
<g id="edge7" class="edge">
<title>m_Area&#45;&gt;m_Price</title>
<path fill="none" stroke="black" d="M521.59,-318.25C508.27,-305.53 494.85,-292.72 483.18,-281.58"/>
<polygon fill="black" stroke="black" points="485.22,-279.17 476.53,-275.23 480.87,-283.73 485.22,-279.17"/>
</g>
<!-- m_Transmission -->
<g id="node13" class="node">
<title>m_Transmission</title>
<path fill="none" stroke="black" d="M561,-212.5C561,-212.5 681,-212.5 681,-212.5 687,-212.5 693,-218.5 693,-224.5 693,-224.5 693,-269.5 693,-269.5 693,-275.5 687,-281.5 681,-281.5 681,-281.5 561,-281.5 561,-281.5 555,-281.5 549,-275.5 549,-269.5 549,-269.5 549,-224.5 549,-224.5 549,-218.5 555,-212.5 561,-212.5"/>
<text text-anchor="start" x="583.5" y="-268.7" font-family="Arial Bold" font-size="11.00">Transmission</text>
<polyline fill="none" stroke="black" points="549,-261.5 693,-261.5 "/>
<text text-anchor="start" x="556" y="-248" font-family="Arial" font-size="10.00">capacity </text>
<text text-anchor="start" x="596" y="-248" font-family="Arial Italic" font-size="10.00" fill="#999999">integer</text>
<text text-anchor="start" x="556" y="-235" font-family="Arial" font-size="10.00">time </text>
<text text-anchor="start" x="578" y="-235" font-family="Arial Italic" font-size="10.00" fill="#999999">datetime ∗</text>
<text text-anchor="start" x="556" y="-222" font-family="Arial" font-size="10.00">value </text>
<text text-anchor="start" x="583" y="-222" font-family="Arial Italic" font-size="10.00" fill="#999999">integer</text>
</g>
<!-- m_Area&#45;&gt;m_Transmission -->
<g id="edge4" class="edge">
<title>m_Area&#45;&gt;m_Transmission</title>
<path fill="none" stroke="black" d="M605.56,-318.25C607.62,-308.87 609.69,-299.44 611.62,-290.68"/>
<polygon fill="black" stroke="black" points="614.71,-291.27 613.57,-281.81 608.56,-289.92 614.71,-291.27"/>
</g>
<!-- m_Unit -->
<g id="node14" class="node">
<title>m_Unit</title>
<path fill="none" stroke="black" d="M358,-93.5C358,-93.5 478,-93.5 478,-93.5 484,-93.5 490,-99.5 490,-105.5 490,-105.5 490,-163.5 490,-163.5 490,-169.5 484,-175.5 478,-175.5 478,-175.5 358,-175.5 358,-175.5 352,-175.5 346,-169.5 346,-163.5 346,-163.5 346,-105.5 346,-105.5 346,-99.5 352,-93.5 358,-93.5"/>
<text text-anchor="start" x="405" y="-162.7" font-family="Arial Bold" font-size="11.00">Unit</text>
<polyline fill="none" stroke="black" points="346,-155.5 490,-155.5 "/>
<text text-anchor="start" x="353" y="-142.5" font-family="Arial" font-size="10.00">enabled </text>
<text text-anchor="start" x="390" y="-142.5" font-family="Arial Italic" font-size="10.00" fill="#999999">boolean ∗</text>
<text text-anchor="start" x="353" y="-129.5" font-family="Arial" font-size="10.00">hires_internal_id </text>
<text text-anchor="start" x="427" y="-129.5" font-family="Arial Italic" font-size="10.00" fill="#999999">string</text>
<text text-anchor="start" x="353" y="-116.5" font-family="Arial" font-size="10.00">internal_id </text>
<text text-anchor="start" x="401" y="-116.5" font-family="Arial Italic" font-size="10.00" fill="#999999">string</text>
<text text-anchor="start" x="353" y="-103.5" font-family="Arial" font-size="10.00">name </text>
<text text-anchor="start" x="381" y="-103.5" font-family="Arial Italic" font-size="10.00" fill="#999999">string (100)</text>
</g>
<!-- m_Area&#45;&gt;m_Unit -->
<g id="edge1" class="edge">
<title>m_Area&#45;&gt;m_Unit</title>
<path fill="none" stroke="black" d="M663.03,-370.84C769.92,-347.49 950.82,-294.31 881,-212 832.97,-155.39 618.67,-140.61 499.18,-136.79"/>
<polygon fill="black" stroke="black" points="499.13,-133.64 490.04,-136.52 498.94,-139.94 499.13,-133.64"/>
</g>
<!-- m_AreasProductionType&#45;&gt;m_Capacity -->
<g id="edge16" class="edge">
<title>m_AreasProductionType&#45;&gt;m_Capacity</title>
<path fill="none" stroke="black" d="M189.25,-225.47C168.32,-209.41 138.8,-186.76 114.62,-168.21"/>
<polygon fill="black" stroke="black" points="116.36,-165.57 107.3,-162.59 112.53,-170.57 116.36,-165.57"/>
</g>
<!-- m_Generation -->
<g id="node4" class="node">
<title>m_Generation</title>
<path fill="none" stroke="black" d="M185,-106.5C185,-106.5 305,-106.5 305,-106.5 311,-106.5 317,-112.5 317,-118.5 317,-118.5 317,-150.5 317,-150.5 317,-156.5 311,-162.5 305,-162.5 305,-162.5 185,-162.5 185,-162.5 179,-162.5 173,-156.5 173,-150.5 173,-150.5 173,-118.5 173,-118.5 173,-112.5 179,-106.5 185,-106.5"/>
<text text-anchor="start" x="214" y="-149.7" font-family="Arial Bold" font-size="11.00">Generation</text>
<polyline fill="none" stroke="black" points="173,-142.5 317,-142.5 "/>
<text text-anchor="start" x="180" y="-129.5" font-family="Arial" font-size="10.00">time </text>
<text text-anchor="start" x="202" y="-129.5" font-family="Arial Italic" font-size="10.00" fill="#999999">datetime ∗</text>
<text text-anchor="start" x="180" y="-116.5" font-family="Arial" font-size="10.00">value </text>
<text text-anchor="start" x="207" y="-116.5" font-family="Arial Italic" font-size="10.00" fill="#999999">integer ∗</text>
</g>
<!-- m_AreasProductionType&#45;&gt;m_Generation -->
<g id="edge13" class="edge">
<title>m_AreasProductionType&#45;&gt;m_Generation</title>
<path fill="none" stroke="black" d="M221.39,-225.47C225.35,-210.38 230.84,-189.47 235.52,-171.61"/>
<polygon fill="black" stroke="black" points="238.65,-172.1 237.89,-162.59 232.56,-170.5 238.65,-172.1"/>
</g>
<!-- m_AreasProductionType&#45;&gt;m_Unit -->
<g id="edge3" class="edge">
<title>m_AreasProductionType&#45;&gt;m_Unit</title>
<path fill="none" stroke="black" d="M253.52,-225.47C277.2,-212.52 308.69,-195.29 337.79,-179.38"/>
<polygon fill="black" stroke="black" points="339.54,-182.01 345.92,-174.93 336.51,-176.49 339.54,-182.01"/>
</g>
<!-- m_GenerationUnit -->
<g id="node5" class="node">
<title>m_GenerationUnit</title>
<path fill="none" stroke="black" d="M185,-0.5C185,-0.5 305,-0.5 305,-0.5 311,-0.5 317,-6.5 317,-12.5 317,-12.5 317,-44.5 317,-44.5 317,-50.5 311,-56.5 305,-56.5 305,-56.5 185,-56.5 185,-56.5 179,-56.5 173,-50.5 173,-44.5 173,-44.5 173,-12.5 173,-12.5 173,-6.5 179,-0.5 185,-0.5"/>
<text text-anchor="start" x="203" y="-43.7" font-family="Arial Bold" font-size="11.00">GenerationUnit</text>
<polyline fill="none" stroke="black" points="173,-36.5 317,-36.5 "/>
<text text-anchor="start" x="180" y="-23.5" font-family="Arial" font-size="10.00">time </text>
<text text-anchor="start" x="202" y="-23.5" font-family="Arial Italic" font-size="10.00" fill="#999999">datetime ∗</text>
<text text-anchor="start" x="180" y="-10.5" font-family="Arial" font-size="10.00">value </text>
<text text-anchor="start" x="207" y="-10.5" font-family="Arial Italic" font-size="10.00" fill="#999999">integer ∗</text>
</g>
<!-- m_GenerationUnitCapacity -->
<g id="node6" class="node">
<title>m_GenerationUnitCapacity</title>
<path fill="none" stroke="black" d="M358,-0.5C358,-0.5 478,-0.5 478,-0.5 484,-0.5 490,-6.5 490,-12.5 490,-12.5 490,-44.5 490,-44.5 490,-50.5 484,-56.5 478,-56.5 478,-56.5 358,-56.5 358,-56.5 352,-56.5 346,-50.5 346,-44.5 346,-44.5 346,-12.5 346,-12.5 346,-6.5 352,-0.5 358,-0.5"/>
<text text-anchor="start" x="353" y="-43.7" font-family="Arial Bold" font-size="11.00">GenerationUnitCapacity</text>
<polyline fill="none" stroke="black" points="346,-36.5 490,-36.5 "/>
<text text-anchor="start" x="353" y="-23.5" font-family="Arial" font-size="10.00">time </text>
<text text-anchor="start" x="375" y="-23.5" font-family="Arial Italic" font-size="10.00" fill="#999999">datetime ∗</text>
<text text-anchor="start" x="353" y="-10.5" font-family="Arial" font-size="10.00">value </text>
<text text-anchor="start" x="380" y="-10.5" font-family="Arial Italic" font-size="10.00" fill="#999999">integer ∗</text>
</g>
<!-- m_GenerationUnitHires -->
<g id="node7" class="node">
<title>m_GenerationUnitHires</title>
<path fill="none" stroke="black" d="M531,-0.5C531,-0.5 651,-0.5 651,-0.5 657,-0.5 663,-6.5 663,-12.5 663,-12.5 663,-44.5 663,-44.5 663,-50.5 657,-56.5 651,-56.5 651,-56.5 531,-56.5 531,-56.5 525,-56.5 519,-50.5 519,-44.5 519,-44.5 519,-12.5 519,-12.5 519,-6.5 525,-0.5 531,-0.5"/>
<text text-anchor="start" x="535" y="-43.7" font-family="Arial Bold" font-size="11.00">GenerationUnitHires</text>
<polyline fill="none" stroke="black" points="519,-36.5 663,-36.5 "/>
<text text-anchor="start" x="526" y="-23.5" font-family="Arial" font-size="10.00">time </text>
<text text-anchor="start" x="548" y="-23.5" font-family="Arial Italic" font-size="10.00" fill="#999999">datetime ∗</text>
<text text-anchor="start" x="526" y="-10.5" font-family="Arial" font-size="10.00">value </text>
<text text-anchor="start" x="553" y="-10.5" font-family="Arial Italic" font-size="10.00" fill="#999999">integer ∗</text>
</g>
<!-- m_Location -->
<g id="node9" class="node">
<title>m_Location</title>
<path fill="none" stroke="black" d="M444,-489.5C444,-489.5 564,-489.5 564,-489.5 570,-489.5 576,-495.5 576,-501.5 576,-501.5 576,-546.5 576,-546.5 576,-552.5 570,-558.5 564,-558.5 564,-558.5 444,-558.5 444,-558.5 438,-558.5 432,-552.5 432,-546.5 432,-546.5 432,-501.5 432,-501.5 432,-495.5 438,-489.5 444,-489.5"/>
<text text-anchor="start" x="479" y="-545.7" font-family="Arial Bold" font-size="11.00">Location</text>
<polyline fill="none" stroke="black" points="432,-538.5 576,-538.5 "/>
<text text-anchor="start" x="439" y="-525" font-family="Arial" font-size="10.00">enabled </text>
<text text-anchor="start" x="476" y="-525" font-family="Arial Italic" font-size="10.00" fill="#999999">boolean ∗</text>
<text text-anchor="start" x="439" y="-512" font-family="Arial" font-size="10.00">name </text>
<text text-anchor="start" x="467" y="-512" font-family="Arial Italic" font-size="10.00" fill="#999999">string ∗</text>
<text text-anchor="start" x="439" y="-499" font-family="Arial" font-size="10.00">point </text>
<text text-anchor="start" x="464" y="-499" font-family="Arial Italic" font-size="10.00" fill="#999999">point ∗</text>
</g>
<!-- m_Location&#45;&gt;m_Area -->
<g id="edge8" class="edge">
<title>m_Location&#45;&gt;m_Area</title>
<path fill="none" stroke="black" d="M525.51,-489.26C531.16,-480.39 537.49,-470.46 543.92,-460.37"/>
<polygon fill="black" stroke="black" points="546.67,-461.92 548.85,-452.64 541.35,-458.53 546.67,-461.92"/>
</g>
<!-- m_Temperature -->
<g id="node12" class="node">
<title>m_Temperature</title>
<path fill="none" stroke="black" d="M358,-357.5C358,-357.5 478,-357.5 478,-357.5 484,-357.5 490,-363.5 490,-369.5 490,-369.5 490,-401.5 490,-401.5 490,-407.5 484,-413.5 478,-413.5 478,-413.5 358,-413.5 358,-413.5 352,-413.5 346,-407.5 346,-401.5 346,-401.5 346,-369.5 346,-369.5 346,-363.5 352,-357.5 358,-357.5"/>
<text text-anchor="start" x="382.5" y="-400.7" font-family="Arial Bold" font-size="11.00">Temperature</text>
<polyline fill="none" stroke="black" points="346,-393.5 490,-393.5 "/>
<text text-anchor="start" x="353" y="-380.5" font-family="Arial" font-size="10.00">time </text>
<text text-anchor="start" x="375" y="-380.5" font-family="Arial Italic" font-size="10.00" fill="#999999">datetime ∗</text>
<text text-anchor="start" x="353" y="-367.5" font-family="Arial" font-size="10.00">value </text>
<text text-anchor="start" x="380" y="-367.5" font-family="Arial Italic" font-size="10.00" fill="#999999">float ∗</text>
</g>
<!-- m_Location&#45;&gt;m_Temperature -->
<g id="edge5" class="edge">
<title>m_Location&#45;&gt;m_Temperature</title>
<path fill="none" stroke="black" d="M482.74,-489.26C469.77,-468.68 453.23,-442.41 440.11,-421.59"/>
<polygon fill="black" stroke="black" points="442.73,-419.84 435.26,-413.9 437.4,-423.19 442.73,-419.84"/>
</g>
<!-- m_ProductionType -->
<g id="node11" class="node">
<title>m_ProductionType</title>
<path fill="none" stroke="black" d="M156,-351C156,-351 276,-351 276,-351 282,-351 288,-357 288,-363 288,-363 288,-408 288,-408 288,-414 282,-420 276,-420 276,-420 156,-420 156,-420 150,-420 144,-414 144,-408 144,-408 144,-363 144,-363 144,-357 150,-351 156,-351"/>
<text text-anchor="start" x="172" y="-407.2" font-family="Arial Bold" font-size="11.00">ProductionType</text>
<polyline fill="none" stroke="black" points="144,-400 288,-400 "/>
<text text-anchor="start" x="151" y="-386.5" font-family="Arial" font-size="10.00">enabled </text>
<text text-anchor="start" x="188" y="-386.5" font-family="Arial Italic" font-size="10.00" fill="#999999">boolean ∗</text>
<text text-anchor="start" x="151" y="-373.5" font-family="Arial" font-size="10.00">name </text>
<text text-anchor="start" x="179" y="-373.5" font-family="Arial Italic" font-size="10.00" fill="#999999">string ∗</text>
<text text-anchor="start" x="151" y="-360.5" font-family="Arial" font-size="10.00">name2 </text>
<text text-anchor="start" x="184" y="-360.5" font-family="Arial Italic" font-size="10.00" fill="#999999">string ∗</text>
</g>
<!-- m_ProductionType&#45;&gt;m_AreasProductionType -->
<g id="edge6" class="edge">
<title>m_ProductionType&#45;&gt;m_AreasProductionType</title>
<path fill="none" stroke="black" d="M216,-350.76C216,-328.34 216,-299.18 216,-277.65"/>
<polygon fill="black" stroke="black" points="219.15,-277.64 216,-268.64 212.85,-277.64 219.15,-277.64"/>
</g>
<!-- m_ProductionType&#45;&gt;m_Capacity -->
<g id="edge15" class="edge">
<title>m_ProductionType&#45;&gt;m_Capacity</title>
<path fill="none" stroke="black" d="M186.95,-350.74C163.36,-323.22 129.32,-283.28 100,-248"/>
<path fill="none" stroke="black" d="M100,-246C82.69,-225.17 75.89,-195.04 73.3,-171.5"/>
<polygon fill="black" stroke="black" points="76.44,-171.19 72.48,-162.51 70.16,-171.76 76.44,-171.19"/>
</g>
<!-- m_ProductionType&#45;&gt;m_Unit -->
<g id="edge2" class="edge">
<title>m_ProductionType&#45;&gt;m_Unit</title>
<path fill="none" stroke="black" d="M245.33,-350.61C262.36,-330.77 284.11,-305.14 303,-282 329.77,-249.21 359.23,-211.65 381.63,-182.77"/>
<polygon fill="black" stroke="black" points="384.15,-184.66 387.17,-175.62 379.17,-180.81 384.15,-184.66"/>
</g>
<!-- m_Unit&#45;&gt;m_GenerationUnit -->
<g id="edge10" class="edge">
<title>m_Unit&#45;&gt;m_GenerationUnit</title>
<path fill="none" stroke="black" d="M351.11,-93.29C333.55,-82.73 314.84,-71.48 298.1,-61.42"/>
<polygon fill="black" stroke="black" points="299.39,-58.52 290.06,-56.59 296.15,-63.92 299.39,-58.52"/>
</g>
<!-- m_Unit&#45;&gt;m_GenerationUnitCapacity -->
<g id="edge12" class="edge">
<title>m_Unit&#45;&gt;m_GenerationUnitCapacity</title>
<path fill="none" stroke="black" d="M418,-93.29C418,-84.31 418,-74.83 418,-66.01"/>
<polygon fill="black" stroke="black" points="421.15,-65.74 418,-56.74 414.85,-65.74 421.15,-65.74"/>
</g>
<!-- m_Unit&#45;&gt;m_GenerationUnitHires -->
<g id="edge11" class="edge">
<title>m_Unit&#45;&gt;m_GenerationUnitHires</title>
<path fill="none" stroke="black" d="M484.89,-93.29C502.45,-82.73 521.16,-71.48 537.9,-61.42"/>
<polygon fill="black" stroke="black" points="539.85,-63.92 545.94,-56.59 536.61,-58.52 539.85,-63.92"/>
</g>
</g>
</svg>
